<svg version="1.1" xmlns="http://www.w3.org/2000/svg" xmlns:xlink="http://www.w3.org/1999/xlink" width="345.83616" height="240.45454" viewBox="1060.86985,363.67096,345.83616,240.45454"><defs><linearGradient x1="1187.95958" y1="543.8784" x2="1351.04804" y2="492.83759" gradientUnits="userSpaceOnUse" id="color-1"><stop offset="0" stop-color="#8f4598"/><stop offset="1" stop-color="#cc94d2"/></linearGradient><linearGradient x1="1364.32827" y1="474.867" x2="1426.32659" y2="440.21515" gradientUnits="userSpaceOnUse" id="color-2"><stop offset="0" stop-color="#cc94d2"/><stop offset="1" stop-color="#4d2552"/></linearGradient></defs><g fill="none" fill-rule="nonzero" stroke="#000000" stroke-width="0" stroke-linecap="round" stroke-linejoin="round" stroke-miterlimit="10" stroke-dasharray="" stroke-dashoffset="0" font-family="none" font-weight="none" font-size="none" text-anchor="none" style="mix-blend-mode: normal"><path d="M1294.31293,570.25245c-4.34687,4.26454 -27.24001,17.02155 -32.18936,20.58102l-32.01963,-60.82173l-12.07168,-21.0373l-9.78688,-20.19266l-3.21005,-6.35215l-17.71547,-34.70293l39.07824,-1.55646l17.9411,32.77886l3.01954,5.51678l7.62295,13.92734z" id="Path 1" fill="#8f4598"/><path d="M1244.90845,446.17024l15.28932,0.26747c2.08775,0.03652 3.40175,2.01247 2.628,3.95189l-19.57747,49.07115l-8.95457,22.44473l-12.41888,31.12807l-10.99027,-21.75441l11.89101,-29.74471l9.07343,-22.69668z" id="Path 1" fill="#8f4598"/><g fill="url(#color-1)"><path d="M1357.27389,464.22016l-260.51247,80.2463l-20.20457,6.22366l-1.96442,-6.487l280.55219,-85.06204l-2.277,3.39641z" id="Path 1"/></g><path d="M1207.66523,603.78516c28.94844,-2.17 55.03859,-14.59107 74.65135,-33.64407c22.48866,-21.84683 36.46102,-52.41313 36.46102,-86.24286c0,-63.33322 -48.97065,-115.22873 -111.11236,-119.88693c3.00878,-0.22554 6.04843,-0.34034 9.1149,-0.34034c66.39969,0 120.22727,53.82758 120.22727,120.22727c0,46.11868 -25.96728,86.17237 -64.07847,106.33771c-16.75966,8.86785 -35.86779,13.88956 -56.1488,13.88956c-3.06647,0 -6.10613,-0.1148 -9.1149,-0.34034z" id="Path 1" fill="#6a2673"/><path d="M1210.88456,531.27913l10.99027,21.75441l5.86126,11.60192c1.53723,3.04283 -0.33462,6.09379 -3.7437,6.10192l-61.83674,0.14741c-3.86363,0.00921 -9.46887,-3.43041 -11.21049,-6.87924l-52.15948,-103.28834l-11.42729,-22.62879l-5.00447,-9.91007c-1.74162,-3.44883 0.38024,-6.86299 4.24372,-6.82832l9.20617,0.08262l18.13085,0.16272l41.72715,0.37448z" id="Path 1" fill="#8f4598"/><path d="M1089.78087,554.71037l-22.37142,6.78291l5.52938,-8.14681l8.4384,-2.73048l15.71235,-5.08418z" id="Path 1" fill="#6a2673"/><path d="M1072.04516,543.49863l-11.17531,-3.5743l24.42413,-6.913l9.12261,3.7044z" id="Path 1" fill="#cc94d2"/><g fill="url(#color-2)"><path d="M1368.89039,457.49506l37.04806,-11.17114c0.25482,-0.07684 0.27335,-0.0312 0.03705,0.09128l-37.60394,19.49057c-1.45254,0.75287 -4.43496,0.92596 -5.96485,0.34617l-5.57982,-2.1146l-4.41219,-1.67208z" id="Path 1"/></g><path d="M1369.18228,457.54727l-16.45884,4.99024l2.277,-3.39641l3.6529,-5.44873c0.87308,-1.30231 3.30529,-2.77018 4.86441,-2.93575l43.18826,-4.58638z" id="Path 1" fill="#cc94d2"/></g></svg>